<svg width="156" height="38" xmlns="http://www.w3.org/2000/svg" xmlns:xlink="http://www.w3.org/1999/xlink"><defs><path d="M29.189.241L11.186 21.796l5.121 7.982 23.63-28.299L38.91.241h-9.72zm-13.507 0L5.32 12.651l4.618 7.198-.004-.007L26.297.242H15.682zm-12.195 0L.03 4.405l4.03 6.284L12.789.24h-9.3zm14.08 31.5l-.005-.007 3.658 5.701L42.35 4.383l-.97-1.167-23.814 28.526z" id="a"/><path d="M29.189.241L11.186 21.796l5.121 7.982 23.63-28.299L38.91.241h-9.72zm-13.507 0L5.32 12.651l4.618 7.198-.004-.007L26.297.242H15.682zm-12.195 0L.03 4.405l4.03 6.284L12.789.24h-9.3zm14.08 31.5l-.005-.007 3.658 5.701L42.35 4.383l-.97-1.167-23.814 28.526z" id="c"/><path d="M29.189.241L11.186 21.796l5.121 7.982 23.63-28.299L38.91.241h-9.72zm-13.507 0L5.32 12.651l4.618 7.198-.004-.007L26.297.242H15.682zm-12.195 0L.03 4.405l4.03 6.284L12.789.24h-9.3zm14.08 31.5l-.005-.007 3.658 5.701L42.35 4.383l-.97-1.167-23.814 28.526z" id="e"/><path d="M29.189.241L11.186 21.796l5.121 7.982 23.63-28.299L38.91.241h-9.72zm-13.507 0L5.32 12.651l4.618 7.198-.004-.007L26.297.242H15.682zm-12.195 0L.03 4.405l4.03 6.284L12.789.24h-9.3zm14.08 31.5l-.005-.007 3.658 5.701L42.35 4.383l-.97-1.167-23.814 28.526z" id="g"/></defs><g fill="none" fill-rule="evenodd" opacity=".1"><path d="M46.733 9.61a14.52 14.52 0 012.152-.16c.62 0 1.267.055 1.94.16l1.222 15.014 6.564-15.013c.638-.106 1.31-.16 2.02-.16.69 0 1.372.054 2.045.16l-9.061 19.105c-.797.107-1.577.16-2.338.16-.355 0-.7-.014-1.037-.04a21.93 21.93 0 01-1.116-.12L46.733 9.61zm18.226 11.188c.673-.106 1.222-.244 1.647-.412.425-.168.762-.354 1.01-.558.248-.204.416-.412.505-.624.088-.213.133-.426.133-.639 0-.336-.11-.61-.333-.823-.221-.213-.517-.32-.89-.32-.46 0-.881.103-1.262.307a3.374 3.374 0 00-.996.81 5.238 5.238 0 00-.731 1.156 6.86 6.86 0 00-.465 1.315l1.382-.212zm-1.515 2.71c.106.85.39 1.484.85 1.9.461.416 1.134.624 2.02.624.708 0 1.333-.075 1.873-.225.54-.15 1.112-.35 1.714-.599.284.355.474.784.572 1.29.097.504.146 1.04.146 1.607a7.06 7.06 0 01-1.05.385c-.399.115-.81.213-1.236.293-.425.08-.85.141-1.275.186-.425.044-.806.066-1.143.066-1.08 0-2.006-.133-2.776-.398-.771-.266-1.409-.643-1.914-1.13a4.415 4.415 0 01-1.116-1.78c-.24-.7-.359-1.475-.359-2.326 0-1.08.186-2.143.558-3.188a9.183 9.183 0 011.582-2.803 7.87 7.87 0 012.497-1.994c.984-.504 2.086-.757 3.309-.757.584 0 1.13.071 1.634.213.505.142.943.358 1.315.65.372.293.665.652.877 1.077.213.425.319.921.319 1.488 0 .797-.186 1.488-.558 2.073a4.96 4.96 0 01-1.488 1.488 8.75 8.75 0 01-2.113.996c-.788.257-1.607.448-2.458.572l-1.78.292zm10.522-2.631c.194-1.116.34-2.103.438-2.963.097-.859.146-1.528.146-2.006v-.492c0-.133-.009-.278-.026-.438a9.812 9.812 0 011.753-.16c.266 0 .532.014.797.04.266.027.55.067.85.12.036.142.072.31.107.505s.053.487.053.877a6.25 6.25 0 01-.08 1.063c.177-.319.4-.633.665-.943.266-.31.562-.589.89-.838a4.374 4.374 0 011.09-.597c.398-.15.837-.226 1.315-.226.372 0 .69.044.957.133a.884.884 0 01.026.212v.24c0 .496-.062 1.01-.186 1.54-.124.532-.292.975-.505 1.329a17.325 17.325 0 00-.345-.053 3.538 3.538 0 00-.478-.026c-.727 0-1.325.124-1.794.371a3.13 3.13 0 00-1.156 1.05c-.302.452-.54.997-.718 1.634a24.083 24.083 0 00-.478 2.126l-.983 5.341c-.69.107-1.338.16-1.94.16-.62 0-1.231-.053-1.833-.16l1.435-7.839zm12.198-3.029h-2.046c0-.478.035-.947.106-1.408.07-.461.204-.948.399-1.462h2.046l.159-.797c.088-.442.141-.864.16-1.263.017-.398.026-.73.026-.996.46-.3 1.036-.513 1.727-.638a10.958 10.958 0 011.913-.185c.089.265.133.602.133 1.01a6.9 6.9 0 01-.066.916 23.28 23.28 0 01-.173 1.076l-.16.877h3.296a7.52 7.52 0 01-.133 1.462c-.089.443-.213.912-.372 1.408h-3.295l-.93 5.235c-.036.248-.067.478-.093.69a4.94 4.94 0 00-.04.612c0 .46.106.823.319 1.09.212.265.61.398 1.195.398.302 0 .567-.022.798-.067.23-.043.442-.092.638-.145.23.513.345 1.186.345 2.019v.425c0 .142-.01.284-.026.425-.762.23-1.675.346-2.738.346-1.488 0-2.59-.275-3.308-.824-.717-.55-1.076-1.47-1.076-2.764 0-.265.017-.54.053-.824.035-.283.08-.593.133-.93l1.01-5.686zm17.112-.027a2.984 2.984 0 00-.465-.066 7.71 7.71 0 00-.438-.013c-.85 0-1.573.212-2.166.638a5.397 5.397 0 00-1.475 1.594 7.126 7.126 0 00-.85 2.059c-.177.735-.266 1.405-.266 2.007 0 1.31.434 1.966 1.302 1.966.85 0 1.638-.518 2.365-1.555.726-1.036 1.257-2.493 1.594-4.37l.399-2.26zm2.737 4.943a43.23 43.23 0 00-.425 2.963c-.09.859-.133 1.528-.133 2.006v.491c0 .133.009.28.026.439a9.57 9.57 0 01-1.727.16 9.508 9.508 0 01-1.647-.16 7.54 7.54 0 01-.107-.505 5.277 5.277 0 01-.053-.877v-.505c0-.176.018-.38.053-.61a6.979 6.979 0 01-1.966 2.045c-.797.55-1.727.824-2.79.824-1.17 0-2.046-.372-2.63-1.116-.585-.744-.878-1.727-.878-2.95 0-1.328.2-2.612.598-3.853a9.879 9.879 0 011.78-3.295 8.757 8.757 0 012.937-2.298c1.17-.576 2.533-.864 4.092-.864.78 0 1.506.053 2.179.16a15.39 15.39 0 011.993.452l-1.302 7.493zm5.897 2.976c.141.053.323.093.544.12.222.026.447.04.678.04.78 0 1.448-.182 2.006-.545a4.674 4.674 0 001.382-1.382 6.072 6.072 0 00.797-1.847 8.11 8.11 0 00.253-1.967c0-.62-.129-1.155-.385-1.607-.257-.452-.696-.678-1.316-.678-.815 0-1.515.346-2.1 1.037-.584.69-1.009 1.833-1.275 3.428l-.584 3.401zm-1.754-11.293c.319-1.86.478-3.269.478-4.225a7.785 7.785 0 00-.053-.93c.301-.053.647-.093 1.036-.12.39-.027.727-.04 1.01-.04.514 0 1.08.053 1.7.16.09.265.134.602.134 1.01 0 .78-.107 1.727-.32 2.843l-.664 3.693c.213-.265.448-.526.705-.784.256-.257.553-.491.89-.704a4.395 4.395 0 011.169-.505 5.758 5.758 0 011.541-.186c1.24 0 2.193.426 2.857 1.276.664.85.996 2.082.996 3.693 0 1.1-.159 2.206-.478 3.322a8.215 8.215 0 01-1.607 3.03c-.754.903-1.75 1.638-2.99 2.204-1.24.568-2.773.851-4.597.851-.833 0-1.594-.07-2.285-.213a11.386 11.386 0 01-1.967-.585l2.445-13.79zm17.749 6.351c.673-.106 1.222-.244 1.648-.412.425-.168.761-.354 1.01-.558.248-.204.415-.412.504-.624a1.65 1.65 0 00.133-.639c0-.336-.11-.61-.332-.823-.222-.213-.518-.32-.89-.32-.461 0-.882.103-1.262.307a3.37 3.37 0 00-.997.81 5.226 5.226 0 00-.73 1.156 6.816 6.816 0 00-.465 1.315l1.381-.212zm-1.514 2.71c.106.85.389 1.484.85 1.9.46.416 1.133.624 2.02.624.708 0 1.332-.075 1.873-.225.54-.15 1.111-.35 1.714-.599.283.355.473.784.571 1.29.097.504.146 1.04.146 1.607-.301.142-.65.27-1.05.385-.398.115-.81.213-1.235.293-.425.08-.85.141-1.276.186a11.12 11.12 0 01-1.142.066c-1.08 0-2.006-.133-2.777-.398-.77-.266-1.408-.643-1.913-1.13a4.415 4.415 0 01-1.116-1.78c-.24-.7-.36-1.475-.36-2.326 0-1.08.187-2.143.559-3.188a9.183 9.183 0 011.581-2.803 7.866 7.866 0 012.498-1.994c.983-.504 2.086-.757 3.308-.757.585 0 1.13.071 1.634.213.505.142.944.358 1.316.65.372.293.664.652.877 1.077.212.425.318.921.318 1.488 0 .797-.185 1.488-.557 2.073a4.96 4.96 0 01-1.488 1.488 8.76 8.76 0 01-2.113.996c-.789.257-1.608.448-2.458.572l-1.78.292zm11.212-9.061a28.24 28.24 0 00.412-2.458c.08-.7.119-1.289.119-1.767a7.76 7.76 0 00-.053-.93c.3-.053.646-.093 1.036-.12.39-.027.726-.04 1.01-.04.514 0 1.08.053 1.7.16.09.265.133.602.133 1.01 0 .371-.035.797-.106 1.275-.07.478-.16 1-.266 1.568l-2.046 10.682c-.053.301-.08.55-.08.744 0 .284.04.504.12.664a.99.99 0 00.306.372.996.996 0 00.425.173c.16.026.319.04.478.04.07 0 .204-.014.399-.04.195-.027.372-.067.531-.12.089.302.164.63.226.983a6.319 6.319 0 01.04 1.887c-.266.107-.611.19-1.037.253a9.852 9.852 0 01-1.408.093c-1.205 0-2.152-.297-2.843-.89-.69-.594-1.036-1.529-1.036-2.804 0-.248.017-.509.053-.784.035-.274.08-.562.133-.864l1.754-9.087zm10.786 11.718c.673 0 1.24-.213 1.7-.637a4.982 4.982 0 001.13-1.581c.292-.63.5-1.293.625-1.994.123-.699.185-1.332.185-1.9 0-1.63-.664-2.444-1.993-2.444-.673 0-1.23.222-1.673.664a5.324 5.324 0 00-1.09 1.62 8.168 8.168 0 00-.598 2.02 11.866 11.866 0 00-.173 1.887c0 1.577.63 2.365 1.887 2.365m-.345 2.87c-1.825 0-3.167-.478-4.026-1.435-.86-.957-1.289-2.267-1.289-3.933 0-1.062.16-2.13.478-3.202a9.243 9.243 0 011.436-2.896 7.532 7.532 0 012.404-2.099c.966-.54 2.095-.81 3.388-.81 1.842 0 3.193.487 4.053 1.46.859.975 1.288 2.295 1.288 3.96a11.52 11.52 0 01-.465 3.242 8.892 8.892 0 01-1.421 2.87 7.285 7.285 0 01-2.418 2.06c-.975.521-2.118.783-3.428.783" fill="#FFF"/><g transform="translate(0 .245)"><mask id="b" fill="#fff"><use xlink:href="#a"/></mask><path fill="#FFF" mask="url(#b)" d="M5.723.116l20.553 29.733-4.969 7.832L-.319 4.429 3.179.2z"/></g><g transform="translate(0 .245)"><mask id="d" fill="#fff"><use xlink:href="#c"/></mask><path fill="#FFF" mask="url(#d)" d="M5.693.116l20.583 29.733 5.128-8.04L16.377.116z"/></g><g transform="translate(0 .245)"><mask id="f" fill="#fff"><use xlink:href="#e"/></mask><path fill="#FFF" mask="url(#f)" d="M16.349.116l15.055 21.693 5.407-8.292L27.47.074z"/></g><g transform="translate(0 .245)"><mask id="h" fill="#fff"><use xlink:href="#g"/></mask><path fill="#FFF" mask="url(#h)" d="M36.773 13.517l5.963-9.13-3.499-4.27H27.43z"/></g></g></svg>