<svg xmlns="http://www.w3.org/2000/svg" version="1.1" xmlns:xlink="http://www.w3.org/1999/xlink" xmlns:svgjs="http://svgjs.dev/svgjs" viewBox="0 0 800 800" opacity="1"><g stroke-width="1" stroke="url(#uundulate-grad)" fill="none"><path d="M914.0241694633112 638.3559386290121C880.7375465655186 945.8445932225147 751.5462897871357 1067.0156918994398 556.5916526089909 1130.3733617691578C361.63701543084585 1193.7310316388757 98.7369271110839 1108.3078329412579 -21.758088991784575 942.4727540036572C-142.2531050946531 776.6376750660565 -175.56057708273187 602.707677511029 -21.78442468477789 334.3649828686723C131.99172771317603 66.02228822631582 521.4073187375425 -408.9036293963913 716.3674425183949 -345.57218027965354C911.3275662992471 -282.2407311629158 947.310792361104 330.8672840355098 914.0241694633112 638.3559386290121C880.7375465655186 945.8445932225147 751.5462897871357 1067.0156918994398 556.5916526089909 1130.3733617691578 "></path><path d="M901.7854994884128 632.6807761614223C869.2914152310436 932.8482723122222 743.1761407569084 1051.134344830173 552.8632806544333 1112.9834987506122C362.5504205519585 1174.832652671051 105.9098581445719 1091.4433396567097 -11.716229003466424 929.5567149795281C-129.34231615150475 767.6700903023464 -161.8567530922483 597.8812831652956 -11.741937656150412 335.9277003001381C138.37287777994754 73.9741174349806 518.5166690180196 -389.6440402443288 708.834885089804 -327.82048277322764C899.1531011615884 -265.99692530212644 934.279583745782 332.51328001062245 901.7854994884128 632.6807761614223C869.2914152310436 932.8482723122222 743.1761407569084 1051.134344830173 552.8632806544333 1112.9834987506122 "></path><path d="M889.5467989959363 627.0057357641449C857.8452533789907 919.8520734722424 734.8059612091024 1035.2531198312188 549.1348781822978 1095.5937578023788C363.463795155493 1155.9343957735389 113.08275866048166 1074.5789684424742 -1.6743995327263974 916.6407980257115C-116.43155772593451 758.7026276089489 -148.15295961934282 593.0550108898751 -1.6994811451010037 337.4905398019164C144.75399732914093 81.92606871395787 515.6259887809185 -370.38432902195376 701.3022971436349 -310.06866319648924C886.9786055063514 -249.75299737102466 921.2483446128817 334.1593980560474 889.5467989959363 627.0057357641449C857.8452533789907 919.8520734722424 734.8059612091024 1035.2531198312188 549.1348781822978 1095.5937578023788 "></path><path d="M877.3081595386161 621.3305732965548C846.3991525620941 906.8557525619499 726.4358426964532 1019.3717727619519 545.4065367453185 1078.2038947838328C364.3772307941838 1137.0360168057139 120.25572021154778 1057.7144751579258 8.367490973169879 903.7247590015822C-103.52073826520802 749.7350428452387 -134.44910511128114 588.2286165441417 8.343036401104655 339.05325723338206C151.13517791349045 89.87789792262242 512.7353695789735 -351.12473986989124 693.7697702326222 -292.31696569006334C874.8041708862706 -233.50919151023538 908.2171665151379 335.8053940311597 877.3081595386161 621.3305732965548C846.3991525620941 906.8557525619499 726.4358426964532 1019.3717727619519 545.4065367453185 1078.2038947838328 "></path><path d="M865.0694590461394 615.6554108289649C834.9529907100414 893.8594316516576 718.0656631486472 1003.490425692685 541.6781342731829 1060.8140317652872C365.2906053977183 1118.137637837889 127.42862072745766 1040.8499818733774 18.409320443909905 890.8087199774532C-90.60997983963779 740.7674580815287 -120.74531163837571 583.4022221984083 18.385492912154064 340.61597466484784C157.51629746268384 97.8297271312872 509.8446893418725 -331.8651507178287 686.2371822864532 -274.56526818363744C862.6296752310338 -217.2653856494461 895.1859273822377 337.4513900062723 865.0694590461394 615.6554108289649C834.9529907100414 893.8594316516576 718.0656631486472 1003.490425692685 541.6781342731829 1060.8140317652872 "></path><path d="M852.8308195888192 609.9803093965313C823.5068898931447 880.8631717765213 709.695544635998 987.6091396585746 537.9497928362036 1043.4242297818976C366.2040410364092 1099.2393199052206 134.60158227852367 1023.9855496239857 28.451210949806182 877.8927419884801C-77.6991603789113 731.7999343529748 -107.04145713031403 578.5758888878315 28.428010458359722 342.17875313146976C163.89747804703347 105.78161737510823 506.9540701399277 -312.60550053060996 678.7046553754403 -256.8135096420553C850.4552406109533 -201.02151875350057 882.1547492844938 339.0974470165411 852.8308195888192 609.9803093965313C823.5068898931447 880.8631717765213 709.695544635998 987.6091396585746 537.9497928362036 1043.4242297818976 "></path><path d="M840.5921496139208 604.305085893785C812.0607585586699 867.8667898310728 701.3253956057704 971.7277315541514 534.2214208816462 1026.0343057281955C367.1174461575217 1080.3408799022395 141.77451331201166 1007.1209953042812 38.49307093812433 864.9766419291948C-64.78837143576294 722.8322885541086 -93.33763313983042 573.7494335069423 38.470497486987256 343.7414095277794C170.27862811380487 113.73338554861675 504.06342042040467 -293.34597241370375 671.1720979468496 -239.06187317078565C838.2807754732944 -184.77777392786754 869.1235406691717 340.7433819564973 840.5921496139208 604.305085893785C812.0607585586699 867.8667898310728 701.3253956057704 971.7277315541514 534.2214208816462 1026.0343057281955 "></path><path d="M828.3534796390225 598.6300454965076C800.6146272241949 854.8705909910927 692.9552465755428 955.8465065551973 530.4930489270887 1008.6445647799621C368.0308512786345 1061.4426230047272 148.94744434549966 990.2566240900455 48.53493092644254 852.0607249753782C-51.87758249261458 713.8648258607111 -79.63380914934686 568.9231612315214 48.51298451561479 345.3042490295577C176.65977818057638 121.68533682759391 501.17277070088176 -274.08626119132873 663.6395405182589 -221.31005359404725C826.1063103356355 -168.53384599676576 856.0923320538495 342.38950000192233 828.3534796390225 598.6300454965076C800.6146272241949 854.8705909910927 692.9552465755428 955.8465065551973 530.4930489270887 1008.6445647799621 "></path><path d="M816.114779146546 592.954944064074C789.1684653721422 841.8743311159569 684.5850670277373 939.9652205210868 526.7646464549532 991.2547627965725C368.9442258821691 1042.5443050720587 156.12034486140942 973.3921918406536 58.57676039718257 839.1447469864054C-38.96682406704434 704.8973021321572 -65.93001567644143 564.0968279209446 58.5554410266642 346.8670274961796C183.04089772976977 129.63722707141494 498.2820904637807 -254.82661100410996 656.1069525720895 -203.55829505246504C813.9318146803987 -152.28997910082018 843.0610929209495 344.035557012191 816.114779146546 592.954944064074C789.1684653721422 841.8743311159569 684.5850670277373 939.9652205210868 526.7646464549532 991.2547627965725 "></path><path d="M803.8761396892255 587.2795374558591C777.7223645552456 828.8777660650394 676.2149485150876 924.083629311195 523.0363050179737 973.8646556374019C369.8576615208599 1023.6456819636089 163.29330641247554 956.5274544154806 68.61865090307884 826.2284638216515C-26.056004606317856 695.9294732278222 -52.22616116837975 559.2701894345864 68.5979585728698 348.4295007870204C189.4220783141194 137.5888121394546 495.3914712618358 -235.56726599267245 648.5744256610769 -185.80684168666414C801.7573800603182 -136.0464173806559 830.0299148232057 345.6813088466786 803.8761396892255 587.2795374558591C777.7223645552456 828.8777660650394 676.2149485150876 924.083629311195 523.0363050179737 973.8646556374019 "></path><path d="M791.637439196749 581.6045580937378C766.2762027031927 815.8816282602156 667.8447689672821 908.2024653473968 519.3079025458381 956.4749757243251C370.7710361243944 1004.7474861012529 170.46620692838542 939.6631442364012 78.66048037381887 813.3126079029912C-13.14524618074762 686.962071569581 -38.52236769547426 554.443978194322 78.64041508391921 349.99240132395505C195.80319786331268 145.54082445358813 492.5007910247348 -216.30749373514118 641.041837714908 -168.0549610747695C789.5828844050811 -119.80242841439787 816.9986756903054 347.32748792725977 791.637439196749 581.6045580937378C766.2762027031927 815.8816282602156 667.8447689672821 908.2024653473968 519.3079025458381 956.4749757243251 "></path><path d="M779.3987997394288 575.9293651085698C754.830101886296 802.8852768323454 659.4746504546325 892.321087760552 515.5795611088589 939.0850821882011C371.6844717630852 985.84907661585 177.63916847945143 922.7986204342749 88.7023708797152 800.396538361284C-0.2344267200211334 677.9944562882929 -24.818513187412577 549.6175533310106 88.68293263012487 351.5550882378426C202.1843784476623 153.49262314467478 489.6101718227899 -197.0479351006568 633.5093108038952 -150.30329408592172C777.4084497850004 -103.55865307118671 803.9674975925614 348.9734533847941 779.3987997394288 575.9293651085698C754.830101886296 802.8852768323454 659.4746504546325 892.321087760552 515.5795611088589 939.0850821882011 "></path><path d="M767.1601297645302 570.2542331585578C743.3839705518212 789.888986439631 651.104501424405 876.439771208863 511.85118915430144 921.6952496872332C372.59787688419783 966.9507281656031 184.81209951293943 905.9341576673046 98.74423086803336 787.4805298547326C12.676362223127228 669.0269020421606 -11.114689196929021 544.7911895028553 98.7254196587524 353.1178361868865C208.56552851443382 161.44448287091745 486.71952210326685 -177.78831543101614 625.9767533753044 -132.5515660619177C765.2339846473417 -87.3148166928193 790.9362889772397 350.61947987748476 767.1601297645302 570.2542331585578C743.3839705518212 789.888986439631 651.104501424405 876.439771208863 511.85118915430144 921.6952496872332 "></path><path d="M754.9214292720537 564.5790401733898C731.9378086997683 776.8926350117604 642.7343218765993 860.5583936220182 508.12278668216595 904.3053561511092C373.51125148773247 948.0523186802002 191.9850000288493 889.0696338651783 108.78606033877338 774.5644603130254C25.587120648697464 660.0592867608725 2.5891042759764105 539.964764639544 108.76787616980181 354.68052310077405C214.9466480636272 169.3962815620041 483.82884186616593 -158.52875679653175 618.4441654291353 -114.79989907306992C753.0594889921049 -71.07104134960815 777.9050498443394 352.2654453350191 754.9214292720537 564.5790401733898C731.9378086997683 776.8926350117604 642.7343218765993 860.5583936220182 508.12278668216595 904.3053561511092 "></path><path d="M742.6827592971554 558.903938740956C720.4916773652935 763.8963751366241 634.3641728463718 844.6771075879078 504.39441472760836 886.9155541677196C374.4246566088451 929.1540007475317 199.15793106233718 872.2052016157863 118.82792032709153 761.6484823240526C38.497909591845826 651.0917630323188 16.292928266460024 535.1384313289672 118.81036319842929 356.2433015673962C221.3277981303986 177.34817180582513 480.9381921466429 -139.26910660931298 610.9116080005444 -97.04814053148777C740.885023854446 -54.827174453662565 764.8738412290172 353.9115023452878 742.6827592971554 558.903938740956C720.4916773652935 763.8963751366241 634.3641728463718 844.6771075879078 504.39441472760836 886.9155541677196 "></path><path d="M730.444089322257 553.2288067909443C709.0455460308187 750.9000847439102 625.9940238161441 828.795791036219 500.666042773051 869.5257216667521C375.33806172995776 910.255652297285 206.33086209582518 855.3407388488163 128.86978031540968 748.7324738175016C51.40869853499419 642.124208786187 29.99675225694358 530.3120675008121 128.85285022705682 357.80604951644C227.70894819717012 185.30003153206803 478.04754242712 -120.00948693967234 603.3790505719536 -79.29641250748375C728.7105587167871 -38.58333807529516 751.8426326136951 355.55752883797845 730.444089322257 553.2288067909443C709.0455460308187 750.9000847439102 625.9940238161441 828.795791036219 500.666042773051 869.5257216667521 "></path><path d="M718.2054498649367 547.5536748409324C697.5994452139222 737.9037943511958 617.6239053034948 812.9144744845303 496.93770133607165 852.1358891657844C376.25149736864864 891.3573038470386 213.50382364689125 838.4762760818464 138.91167082130596 735.8164653109507C64.31951799572067 633.1566545400551 43.70060676500526 525.485703672657 138.89536777326248 359.3687974654839C234.09012878151975 193.25189125831093 475.1569232251751 -100.7498672700317 595.8465236609408 -61.54468448347973C716.5361240967065 -22.339501696927755 738.8114545159513 357.203555330669 718.2054498649367 547.5536748409324C697.5994452139222 737.9037943511958 617.6239053034948 812.9144744845303 496.93770133607165 852.1358891657844 "></path><path d="M705.9667493724602 541.8785734084987C686.1532833618693 724.9075344760597 609.2537257556891 797.0331884504199 493.20929886393606 834.7460871823951C377.16487197218316 872.45898591437 220.67672416280107 821.6118438324543 148.953500292046 722.9004873219778C77.23027642129091 624.1891308115012 57.40440023791075 520.65937036208 148.9378242843119 360.93157593210594C240.47124833071302 201.20378150213185 472.26624298807405 -81.49021708281293 588.3139357147718 -43.79292594189758C704.3616284414696 -6.095634800982225 725.7802153830511 358.8496123409377 705.9667493724602 541.8785734084987C686.1532833618693 724.9075344760597 609.2537257556891 797.0331884504199 493.20929886393606 834.7460871823951 "></path><path d="M693.7281099151398 536.2034109409088C674.7071825449726 711.9112135657674 600.8836072430397 781.1518413811532 489.4809574269568 817.3562241638492C378.07830761087394 853.5606069465452 227.8496857138672 804.7473505479065 158.99539079794226 709.9844482978488C90.1410958820174 615.2215460477911 71.10825474597243 515.8329760163468 158.98034183051755 362.4942933635716C246.85242891506266 209.1556107107965 469.37562378612915 -62.230627930750416 580.7814088037591 -26.04122843547168C692.187193821389 10.148171059807055 712.7490372853072 360.49560831605027 693.7281099151398 536.2034109409088C674.7071825449726 711.9112135657674 600.8836072430397 781.1518413811532 489.4809574269568 817.3562241638492 "></path><path d="M681.4894399402415 530.5283095084751C663.2610512104978 698.9149536906311 592.5134582128121 765.2705553470425 485.75258547239935 799.9664221804596C378.9917127319866 834.6622890138765 235.02261674735513 787.8829182985144 169.03725078626047 697.0684703088759C103.05188482516576 606.2540223192374 84.81207873645599 511.0066427057699 169.02282885914508 364.05707183019365C253.23357898183417 217.10750095461754 466.4849740666061 -42.97097774353165 573.2488513751682 -8.289469893889532C680.0127286837302 26.392037955752585 699.7178286699851 362.14166532631907 681.4894399402415 530.5283095084751C663.2610512104978 698.9149536906311 592.5134582128121 765.2705553470425 485.75258547239935 799.9664221804596 "></path><path d="M669.250739447765 524.8531470408851C651.8148893584449 685.9186327803387 584.1432786650064 749.3892082777757 482.02418300026375 782.5765591619138C379.9050873355211 815.7639100460519 242.19551726326495 771.0184250139662 179.0790802570005 684.1524312847467C115.962643250736 597.2864375555273 98.51587220936142 506.18024836003656 179.0652853701945 365.61978926165943C259.61469853102744 225.0593301632823 463.5942938295052 -23.71138859146913 565.7162634289992 9.462227612536367C667.8382330284933 42.635843816541865 686.686589537085 363.7876613014315 669.250739447765 524.8531470408851C651.8148893584449 685.9186327803387 584.1432786650064 749.3892082777757 482.02418300026375 782.5765591619138 "></path><path d="M657.0120694728665 519.1779845732951C640.3687580239703 672.9223118700464 575.7731296347788 733.507861208509 478.2958110457064 765.186696143368C380.81849245663386 796.8655310782269 249.3684482967529 754.153931729418 189.12094024531865 671.2363922606177C128.87343219388436 588.3188527918173 112.21969619984503 501.3538540143036 189.10777239882196 367.1825066931252C265.99584859779895 233.01115937194697 460.7036441099822 -4.451799439406614 558.1837060004084 27.213925118962266C655.6637678908345 58.8796496773312 673.6553809217629 365.43365727654395 657.0120694728665 519.1779845732951C640.3687580239703 672.9223118700464 575.7731296347788 733.507861208509 478.2958110457064 765.186696143368 "></path><path d="M644.7733994979682 513.5028831408615C628.9226266894954 659.9260519949103 567.4029806045512 717.6265751743985 474.5674390911489 747.7968941599784C381.7318975777465 777.9672131455586 256.54137933024083 737.2894994800263 199.1628002336368 658.3204142716448C141.78422113703277 579.3513290632635 125.92352019032859 496.5275207037266 199.1502594274495 368.74528515974725C272.37699866457046 240.963049615768 457.81299439045927 14.807850747812154 550.6511485718174 44.96568366054447C643.4893027531757 75.12351657327673 660.6241723064409 367.07971428681276 644.7733994979682 513.5028831408615C628.9226266894954 659.9260519949103 567.4029806045512 717.6265751743985 474.5674390911489 747.7968941599784 "></path><path d="M632.5347295230697 507.82772067327153C617.4764953550207 646.9297310846179 559.0328315743236 701.7452281051316 470.83906713659144 730.4070311414326C382.64530269885915 759.0688341777336 263.7143103637288 720.4250061954777 209.20466022195495 645.4043752475156C154.69501008018113 570.3837442995534 139.62734418081214 491.7011263579932 209.19274645607703 370.3080025912129C278.7581487313419 248.91487882443266 454.92234467093624 34.06743989987467 543.1185911432266 62.71738116697037C631.3148376155169 91.36732243406601 647.5929636911188 368.7257102619252 632.5347295230697 507.82772067327153C617.4764953550207 646.9297310846179 559.0328315743236 701.7452281051316 470.83906713659144 730.4070311414326 "></path><path d="M620.2960595481713 502.15258872325967C606.0303640205459 633.9334406919036 550.6626825440961 685.8639115534429 467.1106951820341 713.0171986404649C383.5587078199718 740.170485727487 270.88724139721677 703.5605434285078 219.2465202102731 632.4883667409646C167.6057990233295 561.4161900534215 153.3311681712957 486.87476252983834 219.23523348470457 371.87075054025695C285.1392987981134 256.86673855067556 452.03169495141333 53.32705956951531 535.5860337146357 80.4691091909744C619.1403724778581 107.61115881243342 634.5617550757968 370.37173675461577 620.2960595481713 502.15258872325967C606.0303640205459 633.9334406919036 550.6626825440961 685.8639115534429 467.1106951820341 713.0171986404649 "></path><path d="M608.057389573273 496.4773957380917C594.5842326860711 620.9370892640331 542.2925335138686 669.9825339665981 463.3823232274766 695.627305104341C384.47211294108456 721.272076242084 278.0601724307047 686.6960196263815 229.2883801985913 619.5722971992574C180.51658796647786 552.4485747721333 167.03499216177931 482.048337666527 229.2777205133321 373.4334374541445C291.5204488648849 264.81853724176216 449.1410452318903 72.5866182039997 528.0534762860448 98.22077617982217C606.9659073401994 123.85493415564457 621.5305464604747 372.0177022121502 608.057389573273 496.4773957380917C594.5842326860711 620.9370892640331 542.2925335138686 669.9825339665981 463.3823232274766 695.627305104341 "></path><path d="M595.8187195983745 490.80229430565794C583.1381013515963 607.9408293888969 533.922384483641 654.1012479324875 459.65395127291913 678.2375031209516C385.3855180621972 702.3737583094155 285.2331034641927 669.8315873769897 239.33024018690946 606.6563192102847C193.42737690962622 543.4810510435796 180.73881615226287 477.22200435595005 239.32020754195958 374.99621592076664C297.90159893165634 272.7704274855831 446.2503955123674 91.84626839121847 520.520918857454 115.97253472140432C594.7914422025406 140.0988010515901 608.4993378451527 373.663759222419 595.8187195983745 490.80229430565794C583.1381013515963 607.9408293888969 533.922384483641 654.1012479324875 459.65395127291913 678.2375031209516 "></path><path d="M583.580049623476 485.1271013204898C571.6919700171215 594.9444779610265 525.5522354534135 638.2198703456424 455.92557931836166 660.8476095848275C386.29892318330985 683.4753488240125 292.40603449768065 652.9670635748632 249.37210017522762 593.7402496685772C206.33816585277458 534.5134357622912 194.44264014274643 472.3955794926386 249.3626945705871 376.5589028346542C304.28274899842785 280.72222617666966 443.35974579284436 111.10582702570287 512.9883614288631 133.7242017102521C582.6169770648818 156.3425763948013 595.4681292298308 375.3097246799533 583.580049623476 485.1271013204898C571.6919700171215 594.9444779610265 525.5522354534135 638.2198703456424 455.92557931836166 660.8476095848275 "></path><path d="M571.3413796485777 479.45201514684527C560.2458386826468 581.9482333446792 517.1820864231859 622.3385995703211 452.1972073638042 643.457822860227C387.2123283044225 664.577046150133 299.5789655311686 636.1026465842604 259.41396016354577 580.8242869383935C219.24895479592294 525.5459272925266 208.14646413322998 467.5692614408508 259.40518159921464 378.1216965600653C310.6638990651993 288.67413167927975 440.46909607332145 130.3654924717107 505.4558040002722 151.4759755106233C570.442511927223 172.5864585495359 582.4369206145086 376.9557969490111 571.3413796485777 479.45201514684527C560.2458386826468 581.9482333446792 517.1820864231859 622.3385995703211 452.1972073638042 643.457822860227 "></path><path d="M559.1027249324684 473.7768526792553C548.799722606961 568.9519124343869 508.81195265174733 606.4572525010542 448.4688506680359 626.0679598416813C388.1257486843243 645.6786671823083 306.75191182344565 619.2381532997123 269.455835410653 567.9082479142644C232.15975899786037 516.5783425288166 221.85030338250266 462.7428670951176 269.44768388663124 379.6844139915311C317.0450643907599 296.62596088794453 437.5784616125875 149.6250816237732 497.92326183047044 169.2276730170492C558.2680620483533 188.83026441032519 569.4057272579756 378.60179292412363 559.1027249324684 473.7768526792553C548.799722606961 568.9519124343869 508.81195265174733 606.4572525010542 448.4688506680359 626.0679598416813 "></path><path d="M546.8640396987809 468.10170547045436C537.3535760136972 555.9556067828837 500.4417883627308 590.5759206905766 444.74046345468935 608.6781120819246C389.0391385466479 626.7803034732726 313.92482759814453 602.3736752739533 279.49768014018207 554.9922241489244C245.07053268221966 507.6107730238955 235.55411211419715 457.9164880081735 279.4901556564697 381.2471466817858C323.42619919874227 304.57780535539825 434.6877966342755 168.8846860346248 490.3906891430904 186.97938578226416C546.0935816519054 205.07408552990353 556.3745033838645 380.24780415802513 546.8640396987809 468.10170547045436C537.3535760136972 555.9556067828837 500.4417883627308 590.5759206905766 444.74046345468935 608.6781120819246 "></path><path d="M534.6253697238825 462.4265430028645C525.9074446792224 542.9592858725912 492.0716393325032 574.6945736213097 441.0120915001319 591.2882490633788C389.95254366776055 607.8819245054478 321.0977586316325 585.509181989405 289.5395401285002 542.0761851247953C257.981321625368 498.6431882601855 249.2579361046807 453.09009366244015 289.53264268509724 382.8098641132516C329.8073492655137 312.52963456406303 431.7971469147526 188.1442751866873 482.8581317144997 204.73108328869006C533.9191165142466 221.3178913906928 543.3432947685425 381.8938001331376 534.6253697238825 462.4265430028645C525.9074446792224 542.9592858725912 492.0716393325032 574.6945736213097 441.0120915001319 591.2882490633788 "></path><path d="M522.386699748984 456.7513500176964C514.4613133447476 529.9629344447208 483.7014903022756 558.8131960344649 437.2837195455745 573.8983555272548C390.86594878887325 588.9835150200449 328.2706896651204 568.6446581872788 299.5814001168184 529.1601155830881C270.8921105685164 489.67557297889743 262.96176009516427 448.26366879912894 299.5751297137248 384.37255102713925C336.18849933228523 320.4814332551496 428.9064971952296 207.4038338211717 475.3255742859087 222.48275027753783C521.7446513765879 237.56166673390396 530.3120861532204 383.539765590672 522.386699748984 456.7513500176964C514.4613133447476 529.9629344447208 483.7014903022756 558.8131960344649 437.2837195455745 573.8983555272548 "></path><path d="M510.14802977408567 451.0763096204189C503.01518201027295 516.9667356047408 475.3313412720481 542.9319710355105 433.55534759101704 556.5086145790215C391.7793539099859 570.0852581225325 335.44362069860836 551.780286973043 309.6232601051366 516.2441986292713C283.80289951166475 480.70811028549974 276.6655840856479 443.43739652370823 309.6176167423523 385.93539052891754C342.5696493990567 328.43338453412684 426.01584747570666 226.66354504354672 467.79301685731787 240.23456985427623C509.57018623892907 253.8055946650058 517.2808775378984 385.18588363609695 510.14802977408567 451.0763096204189C503.01518201027295 516.9667356047408 475.3313412720481 542.9319710355105 433.55534759101704 556.5086145790215 "></path><path d="M497.9093597991873 445.40117767040715C491.56905067579817 503.97044521202656 466.9611922418205 527.0506544838219 429.82697563645957 539.118782078054C392.6927590310986 551.1869096722859 342.61655173209635 534.915824206073 319.66512009345473 503.32819012272046C296.7136884548131 471.7405560393679 290.36940807613144 438.61103269555315 319.6601037709798 387.49813847796145C348.9507994658282 336.3852442603697 423.1251977561837 245.92316471318736 460.260459428727 257.98629787828025C497.3957211012703 270.0494310433732 504.24966892257635 386.8319101287876 497.9093597991873 445.40117767040715C491.56905067579817 503.97044521202656 466.9611922418205 527.0506544838219 429.82697563645957 539.118782078054 "></path><path d="M485.67068982428884 439.72601520281717C480.1229193413234 490.97412430173415 458.59104321159293 511.1693074145551 426.0986036819021 521.728919059508C393.60616415221125 532.288530704461 349.7894827655843 518.0513309215247 329.7069800817729 490.41215109859127C309.62447739796147 462.7729712756578 304.073232066615 433.78463834981994 329.7025907996073 389.0608559094272C355.33194953259965 344.3370734690344 420.2345480366607 265.1827538652499 452.7279020001361 275.73799538470615C485.2212559636115 286.2932369041625 491.2184603072543 388.47790610390007 485.67068982428884 439.72601520281717C480.1229193413234 490.97412430173415 458.59104321159293 511.1693074145551 426.0986036819021 521.728919059508 "></path><path d="M473.4320198493904 434.0508374764381C468.6767880068486 477.9777881326528 450.2208941813654 495.28794508649924 422.3702317273447 504.33904078217324C394.51956927332395 513.3901364778472 356.96241379907224 501.18682237818757 339.74884007009103 477.4960968156731C322.53526634110983 453.8053712531587 317.77705605709855 428.9582287452977 339.74507782823486 390.62355808210384C361.7130995993711 352.28888741891006 417.34389831713776 284.44232775852333 445.1953445715452 293.48967763234305C473.0467908259527 302.5370275061627 478.18725169193226 390.1238868202235 473.4320198493904 434.0508374764381C468.6767880068486 477.9777881326528 450.2208941813654 495.28794508649924 422.3702317273447 504.33904078217324 "></path><path d="M461.193349874492 428.3757055264263C457.2306566723738 464.9814977399385 441.8507451511378 479.4066285348106 418.64185977278726 486.94920828120553C395.43297439443666 494.4917880276006 364.13534483256024 484.3223596112175 349.7907000584092 464.5800883091222C335.4460552842582 444.83781700702684 331.48088004758216 424.1318649171426 349.7875648568624 392.18630603114775C368.0942496661426 360.2407471451529 414.4532485976148 303.701947428164 437.66278714295436 311.24140565634707C460.8723256882939 318.7808638845301 465.1560430766102 391.7699133129141 461.193349874492 428.3757055264263C457.2306566723738 464.9814977399385 441.8507451511378 479.4066285348106 418.64185977278726 486.94920828120553 "></path><path d="M448.95467989959366 422.7005735764145C445.7845253378991 451.9852073472242 433.48059612091026 463.52531198312187 414.9134878182298 469.55937578023793C396.3463795155493 475.5934395773539 371.3082758660482 467.45789684424744 359.83256004672734 451.66407980257117C348.35684422740655 435.8702627608949 345.1847040380657 419.3055010889875 359.8300518854899 393.74905398019166C374.47539973291407 368.1926068713958 411.5625988780919 322.9615670978046 430.1302297143635 328.9931336803511C448.69786055063514 335.0247002628975 452.1248344612882 393.41593980560475 448.95467989959366 422.7005735764145C445.7845253378991 451.9852073472242 433.48059612091026 463.52531198312187 414.9134878182298 469.55937578023793 "></path><path d="M436.7160099246952 417.0254263676136C434.3383940034243 438.9889016957209 425.11044709068267 447.64398017264415 411.1851158636723 452.16952802048115C397.25978463666195 456.69507586831816 378.4812068995361 450.5934188184883 369.87442003504555 438.7480560372311C361.2676331705549 426.9026932559739 358.8885280285493 414.47912200204337 369.8725389141174 395.31178667044645C380.8565497996856 376.1444513388496 408.6719491585689 342.2211715086562 422.5976722857726 346.74484644556605C436.52339541297636 351.2685213824759 439.09362584596613 395.0619510395063 436.7160099246952 417.0254263676136C434.3383940034243 438.9889016957209 425.11044709068267 447.64398017264415 411.1851158636723 452.16952802048115 "></path><path d="M424.47733994979683 411.3502791588127C422.89226266894957 425.9925960442176 416.74029806045513 431.7626483621664 407.4567439091149 434.77968026072443C398.17318975777465 437.7967121592824 385.65413793302406 433.7289407927292 379.9162800233637 425.832032271891C374.1784221137033 417.9351237510529 372.59235201903283 409.6527429150992 379.91502594274493 396.8745193607013C387.23769986645704 384.0962958063034 405.78129943904594 361.4807759195078 415.06511485718175 364.496559210781C424.34893027531757 367.51234250205425 426.0624172306441 396.7079622734078 424.47733994979683 411.3502791588127C422.89226266894957 425.9925960442176 416.74029806045513 431.7626483621664 407.4567439091149 434.77968026072443 "></path><path d="M412.2386699748984 405.67514720880087C411.4461313344748 412.99630565150335 408.3701490302276 415.8813318104777 403.7283719545574 417.3898477597567C399.08659487888735 418.8983637090357 392.82706896651206 416.8644780257591 389.95814001168185 412.91602376534007C387.08921105685164 408.967569504921 386.29617600951644 404.82637908694414 389.95751297137247 398.43726730974515C393.61884993322855 392.0481555325462 402.89064971952297 380.7403955891484 407.53255742859085 382.24828723478504C412.1744651376588 383.75617888042166 413.03120861532204 398.35398876609844 412.2386699748984 405.67514720880087C411.4461313344748 412.99630565150335 408.3701490302276 415.8813318104777 403.7283719545574 417.3898477597567 "></path></g><defs><linearGradient x1="50%" y1="0%" x2="50%" y2="100%" id="uundulate-grad"><stop stop-color="hsl(162, 100%, 58%)" stop-opacity="1" offset="45%"></stop><stop stop-color="hsl(270, 73%, 53%)" stop-opacity="1" offset="100%"></stop></linearGradient></defs></svg>